<?xml version="1.0" standalone="no"?>
<!DOCTYPE svg PUBLIC "-//W3C//DTD SVG 20010904//EN"
 "http://www.w3.org/TR/2001/REC-SVG-20010904/DTD/svg10.dtd">
<svg version="1.0" xmlns="http://www.w3.org/2000/svg"
 width="260.000000pt" height="260.000000pt" viewBox="0 0 260.000000 260.000000"
 preserveAspectRatio="xMidYMid meet">
<metadata>
Created by potrace 1.11, written by Peter Selinger 2001-2013
</metadata>
<g transform="translate(0.000000,260.000000) scale(0.100000,-0.100000)"
fill="#000000" stroke="none">
<path d="M139 2540 c68 -33 125 -60 127 -60 2 0 4 27 4 60 l0 60 -127 0 -128
-1 124 -59z"/>
<path d="M290 2540 c0 -33 2 -60 4 -60 2 0 52 24 112 53 60 30 116 57 124 60
8 3 -42 6 -112 6 l-128 1 0 -60z"/>
<path d="M463 2532 c-79 -37 -143 -69 -143 -72 0 -3 64 -35 143 -72 l142 -68
3 70 c2 39 2 101 0 139 l-3 70 -142 -67z"/>
<path d="M638 2459 c-2 -76 0 -138 4 -137 37 14 287 134 287 138 0 3 -65 35
-144 72 l-144 66 -3 -139z"/>
<path d="M720 2592 c8 -3 63 -29 123 -58 l107 -53 0 60 0 60 -60 -3 c-36 -2
-62 -8 -65 -15 -5 -15 17 -17 31 -3 6 6 15 -1 25 -19 13 -22 13 -28 3 -28 -8
0 -14 4 -14 9 0 5 -3 7 -7 5 -5 -3 -24 4 -43 14 -20 11 -28 19 -17 19 9 0 17
4 17 8 0 13 -34 11 -42 -2 -6 -8 -8 -8 -8 0 0 6 -15 11 -32 11 -18 1 -26 -2
-18 -5z m213 -76 c4 -10 1 -13 -9 -9 -15 6 -19 23 -5 23 5 0 11 -7 14 -14z"/>
<path d="M980 2540 c0 -35 3 -60 7 -56 7 7 5 108 -3 115 -2 2 -4 -24 -4 -59z"/>
<path d="M1445 2573 c28 -14 83 -41 123 -59 l72 -33 0 59 0 60 -122 0 -123 -1
50 -26z"/>
<path d="M1860 2585 c-14 -8 -20 -14 -15 -14 6 0 21 6 35 14 14 8 21 14 15 14
-5 0 -21 -6 -35 -14z"/>
<path d="M2008 2459 c-2 -116 -1 -138 11 -134 44 17 281 131 281 135 0 3 -22
15 -48 26 -26 12 -91 42 -144 67 l-97 46 -3 -140z"/>
<path d="M2199 2539 c68 -32 124 -59 125 -59 0 0 -1 27 -2 60 l-4 60 -121 -1
-122 -1 124 -59z"/>
<path d="M2350 2540 l0 -59 93 43 c172 80 170 75 30 76 l-123 0 0 -60z"/>
<path d="M0 2460 l0 -119 78 35 c42 20 98 46 124 58 26 11 48 23 48 26 0 3
-12 11 -27 17 -16 6 -72 31 -125 56 l-98 46 0 -119z"/>
<path d="M1090 2545 c-36 -19 -60 -34 -55 -34 6 0 39 15 75 34 36 19 61 34 55
34 -5 0 -39 -15 -75 -34z"/>
<path d="M850 2559 c0 -5 5 -7 10 -4 6 3 10 8 10 11 0 2 -4 4 -10 4 -5 0 -10
-5 -10 -11z"/>
<path d="M2478 2517 c-59 -29 -108 -54 -108 -57 0 -4 179 -91 222 -108 4 -2 8
46 8 107 0 61 -3 111 -7 110 -5 0 -56 -24 -115 -52z"/>
<path d="M1710 2515 c-25 -13 -40 -24 -35 -24 6 0 30 11 55 24 25 13 41 24 35
24 -5 0 -30 -11 -55 -24z"/>
<path d="M128 2377 c-90 -44 -128 -67 -128 -79 0 -12 38 -35 126 -78 70 -33
131 -60 135 -60 5 0 9 63 9 140 0 77 -3 140 -7 139 -5 0 -65 -29 -135 -62z"/>
<path d="M290 2300 c0 -77 3 -140 6 -140 6 0 286 130 293 136 2 2 -20 15 -50
28 -30 13 -96 44 -148 70 -52 25 -95 46 -97 46 -2 0 -4 -63 -4 -140z"/>
<path d="M2170 2367 l-145 -69 144 -69 c80 -38 147 -68 150 -67 3 2 4 64 1
139 l-5 135 -145 -69z"/>
<path d="M2350 2299 c0 -76 3 -139 7 -139 3 0 60 25 125 57 169 80 165 91 -77
198 l-55 24 0 -140z"/>
<path d="M456 2206 l-149 -72 53 -23 c30 -13 98 -45 152 -71 l98 -49 0 145 c0
79 -1 144 -2 143 -2 0 -70 -33 -152 -73z"/>
<path d="M2010 2136 c0 -75 2 -136 3 -136 2 0 68 31 146 68 l142 68 -137 64
c-75 36 -141 67 -145 68 -5 2 -9 -57 -9 -132z m124 67 c155 -72 154 -62 16
-126 -66 -32 -123 -57 -125 -57 -3 0 -5 52 -5 115 0 63 3 115 6 115 3 0 52
-21 108 -47z"/>
<path d="M0 2136 c0 -64 2 -116 4 -116 2 0 58 26 125 58 l121 58 -116 55 c-65
30 -121 56 -126 57 -4 2 -8 -48 -8 -112z"/>
<path d="M2476 2187 l-109 -52 108 -50 c59 -28 112 -51 117 -53 4 -2 8 44 8
102 0 58 -3 106 -7 106 -5 -1 -57 -24 -117 -53z"/>
<path d="M295 1975 c0 -74 3 -135 7 -135 20 0 96 45 91 53 -3 6 -1 7 5 3 6 -3
51 12 101 35 l91 42 -146 68 c-80 38 -146 69 -147 69 -1 0 -2 -61 -2 -135z
m36 96 c6 10 8 8 6 -8 -1 -17 -4 -19 -14 -11 -7 6 -12 18 -12 27 1 12 2 11 6
-3 4 -15 7 -16 14 -5z m132 -69 c-5 -13 -3 -14 7 -5 13 12 60 -2 60 -18 0 -5
8 -6 18 -3 14 5 14 4 2 -4 -8 -6 -18 -8 -22 -6 -4 3 -8 1 -8 -5 0 -6 -7 -8
-15 -5 -21 8 -19 25 3 18 15 -5 15 -4 -2 10 -19 16 -41 12 -31 -5 12 -18 -7
-8 -25 13 -20 25 -18 40 5 32 8 -3 11 -13 8 -22z m-3 -73 c0 -6 -4 -7 -10 -4
-5 3 -10 1 -10 -4 0 -6 -8 -11 -17 -10 -11 0 -13 3 -5 6 6 2 10 8 8 12 -3 4 4
8 15 8 10 1 19 -3 19 -8z m-80 -36 c0 -1 -13 -9 -30 -18 -33 -17 -55 -20 -26
-4 13 8 15 13 6 19 -6 4 2 7 19 6 17 -1 31 -2 31 -3z"/>
<path d="M795 2041 l-140 -69 95 -44 c52 -25 118 -57 147 -71 l52 -27 3 140
c2 89 -1 140 -7 139 -5 0 -73 -31 -150 -68z"/>
<path d="M980 1971 l0 -140 93 46 c50 25 117 57 147 70 l55 25 -144 69 c-79
38 -145 69 -147 69 -2 0 -4 -63 -4 -139z"/>
<path d="M1700 2085 c25 -13 50 -24 55 -24 6 0 -10 11 -35 24 -25 13 -49 24
-55 24 -5 0 10 -11 35 -24z"/>
<path d="M2165 2040 l-140 -67 80 -38 c44 -20 110 -52 147 -71 l67 -34 3 140
c2 89 -1 140 -7 139 -5 0 -73 -31 -150 -69z"/>
<path d="M2352 1978 c-1 -76 1 -138 6 -138 4 0 6 42 4 92 -5 168 -8 185 -10
46z"/>
<path d="M2450 2055 c25 -13 50 -24 55 -24 6 0 -10 11 -35 24 -25 13 -49 24
-55 24 -5 0 10 -11 35 -24z"/>
<path d="M1869 2006 l65 -33 -30 -16 c-38 -21 -24 -22 20 -1 l34 17 -70 33
c-90 44 -103 43 -19 0z"/>
<path d="M640 1940 c0 -5 5 -10 11 -10 5 0 7 5 4 10 -3 6 -8 10 -11 10 -2 0
-4 -4 -4 -10z"/>
<path d="M1143 1882 c-79 -36 -143 -69 -143 -72 1 -4 244 -120 292 -138 4 -2
8 60 8 137 0 78 -3 141 -7 141 -5 -1 -72 -31 -150 -68z"/>
<path d="M1320 1810 c0 -77 2 -140 4 -140 9 0 298 141 295 144 -7 5 -290 136
-294 136 -3 0 -5 -63 -5 -140z"/>
<path d="M1821 1880 l-144 -69 119 -56 c65 -32 134 -63 152 -71 l32 -14 0 140
c0 77 -3 140 -7 139 -5 0 -73 -32 -152 -69z"/>
<path d="M2010 1809 c0 -133 1 -139 19 -130 10 6 76 38 147 71 l129 61 -95 45
c-52 25 -119 56 -147 69 l-53 24 0 -140z"/>
<path d="M2520 1925 c-25 -13 -40 -24 -35 -24 6 0 30 11 55 24 25 13 41 24 35
24 -5 0 -30 -11 -55 -24z"/>
<path d="M1740 1880 c-41 -21 -70 -39 -65 -39 6 0 44 18 85 39 41 21 71 39 65
39 -5 0 -44 -18 -85 -39z"/>
<path d="M980 1650 c0 -77 1 -140 3 -140 2 0 70 31 152 69 l148 70 -119 56
c-66 32 -134 63 -151 71 l-33 14 0 -140z"/>
<path d="M1483 1722 c-78 -37 -142 -69 -142 -72 0 -4 258 -128 289 -138 6 -2
10 50 10 137 0 78 -3 141 -7 140 -5 0 -72 -31 -150 -67z"/>
<path d="M1660 1650 c0 -84 4 -140 9 -138 34 12 291 134 291 138 -1 4 -252
123 -291 138 -5 2 -9 -60 -9 -138z"/>
<path d="M760 1740 c-9 -6 -10 -10 -3 -10 6 0 15 5 18 10 8 12 4 12 -15 0z"/>
<path d="M1140 1558 c-122 -58 -142 -71 -126 -80 10 -6 78 -39 152 -74 l134
-63 0 144 c0 80 -3 145 -7 144 -5 0 -73 -32 -153 -71z"/>
<path d="M1320 1486 l0 -145 98 47 c53 26 122 59 152 73 l55 26 -100 48 c-55
26 -124 58 -152 71 l-53 24 0 -144z"/>
<path d="M2012 1483 l2 -138 3 132 c3 120 5 132 21 127 14 -5 15 -4 2 5 -8 6
-18 11 -22 11 -5 0 -7 -62 -6 -137z"/>
<path d="M0 1486 l0 -116 23 9 c12 5 68 31 125 58 l103 49 -104 51 c-162 79
-147 84 -147 -51z"/>
<path d="M2190 1530 c8 -5 20 -10 25 -10 6 0 3 5 -5 10 -8 5 -19 10 -25 10 -5
0 -3 -5 5 -10z"/>
<path d="M2277 1489 c7 -7 15 -10 18 -7 3 3 -2 9 -12 12 -14 6 -15 5 -6 -5z"/>
<path d="M135 1405 c-89 -44 -130 -69 -130 -80 0 -12 41 -37 133 -80 l132 -64
0 145 c0 79 -1 144 -2 143 -2 0 -61 -29 -133 -64z"/>
<path d="M980 1325 l0 -143 131 64 c72 35 134 64 139 64 25 0 17 22 -12 34
-18 8 -84 39 -145 69 l-113 55 0 -143z"/>
<path d="M1486 1396 l-149 -71 149 -71 149 -71 3 74 c2 41 2 105 0 142 l-3 68
-149 -71z"/>
<path d="M1665 1325 c0 -74 2 -135 5 -135 3 0 69 30 148 67 l142 68 -141 67
c-78 38 -145 68 -148 68 -3 0 -6 -61 -6 -135z"/>
<path d="M2166 1392 l-138 -67 137 -65 c76 -36 142 -66 146 -68 5 -2 9 57 9
132 0 75 -3 136 -7 135 -5 0 -70 -31 -147 -67z m39 -13 c11 -16 1 -19 -13 -3
-7 8 -8 14 -3 14 5 0 13 -5 16 -11z m-28 -18 c9 8 13 8 13 0 0 -6 -5 -11 -11
-11 -6 0 -8 -8 -5 -17 5 -14 2 -14 -12 3 -9 11 -24 19 -32 17 -13 -4 -13 -3 0
6 9 6 18 7 24 1 6 -6 15 -5 23 1z m-72 -21 c-3 -5 -12 -10 -18 -10 -7 0 -6 4
3 10 19 12 23 12 15 0z m31 -25 c-1 -9 -5 -15 -9 -15 -4 0 -13 0 -19 0 -7 0
-5 5 5 11 9 6 14 15 11 21 -4 6 -3 8 4 5 5 -4 9 -14 8 -22z m87 1 c4 -11 1
-13 -10 -9 -10 4 -14 2 -10 -4 3 -5 0 -10 -8 -10 -13 0 -12 4 2 19 19 22 19
22 26 4z m-36 -39 c7 0 10 -4 7 -9 -3 -4 -15 -3 -27 3 -30 16 -37 24 -12 14
11 -4 25 -8 32 -8z m33 -17 c0 -5 -5 -10 -11 -10 -5 0 -7 5 -4 10 3 6 8 10 11
10 2 0 4 -4 4 -10z m55 -30 c3 -6 -1 -7 -9 -4 -18 7 -21 14 -7 14 6 0 13 -4
16 -10z"/>
<path d="M2170 1435 c-14 -8 -20 -14 -15 -14 6 0 21 6 35 14 14 8 21 14 15 14
-5 0 -21 -6 -35 -14z"/>
<path d="M1320 1165 l0 -144 73 33 c39 19 108 51 152 71 l80 38 -45 21 c-25
11 -93 44 -152 73 l-108 52 0 -144z"/>
<path d="M640 1164 c0 -73 2 -134 5 -134 3 0 68 30 145 66 l140 67 -113 54
c-61 30 -127 61 -144 68 l-33 14 0 -135z m80 86 c19 -11 29 -19 21 -20 -11 0
-10 -5 2 -24 15 -22 15 -24 -1 -22 -10 2 -16 12 -16 27 0 14 -9 29 -20 36 -25
14 -39 16 -32 5 3 -5 -1 -9 -9 -9 -11 0 -12 4 -4 14 14 16 17 16 59 -7z m60
-40 c-9 -6 -9 -9 0 -15 7 -4 16 -2 20 5 5 8 9 6 12 -7 4 -13 -1 -18 -18 -18
-12 0 -22 2 -22 5 0 3 -1 7 -2 10 -9 24 -6 38 7 33 11 -4 11 -8 3 -13z m118
-45 c3 -2 -8 -9 -23 -15 -15 -6 -32 -13 -36 -16 -5 -3 -6 2 -3 10 3 9 16 16
28 16 19 1 19 2 3 11 -9 5 -21 8 -26 5 -5 -3 -11 1 -15 9 -5 13 -1 13 31 0 20
-9 39 -18 41 -20z m-101 -42 c2 -6 -4 -14 -14 -17 -15 -6 -16 -5 -5 6 10 10 8
16 -10 31 l-23 19 24 -14 c14 -8 26 -19 28 -25z m-57 -13 c-7 -4 -10 -12 -6
-18 3 -5 -1 -12 -9 -15 -11 -5 -12 -1 -5 17 5 13 6 27 2 31 -3 3 2 3 12 -1 13
-5 14 -9 6 -14z m-57 -47 c-9 -7 -22 -13 -27 -12 -6 0 -5 3 3 6 10 4 11 7 1
13 -8 5 -3 7 14 7 24 -2 25 -3 9 -14z"/>
<path d="M1142 1232 l-142 -67 137 -67 c76 -37 141 -67 145 -68 4 0 8 61 10
135 2 74 1 135 -2 135 -3 -1 -69 -31 -148 -68z"/>
<path d="M1971 1284 c0 -11 3 -14 6 -6 3 7 2 16 -1 19 -3 4 -6 -2 -5 -13z"/>
<path d="M2010 1165 c0 -74 2 -135 5 -135 9 0 285 133 282 137 -2 2 -64 -26
-138 -61 l-134 -63 -3 115 c-1 63 -1 117 2 119 2 3 57 -21 122 -51 64 -31 120
-56 123 -56 9 1 -62 38 -166 86 l-93 43 0 -134z"/>
<path d="M0 1163 c0 -88 3 -114 13 -110 6 3 62 28 124 57 l112 53 -72 34 c-40
19 -96 46 -124 58 l-53 24 0 -116z"/>
<path d="M2475 1215 l-110 -53 40 -17 c22 -10 75 -35 118 -56 l77 -39 0 110
c0 60 -3 110 -7 109 -5 0 -57 -25 -118 -54z"/>
<path d="M1870 1250 c-8 -5 -10 -10 -5 -10 6 0 17 5 25 10 8 5 11 10 5 10 -5
0 -17 -5 -25 -10z"/>
<path d="M320 1166 c0 -2 7 -7 16 -10 8 -3 12 -2 9 4 -6 10 -25 14 -25 6z"/>
<path d="M1690 1166 c0 -2 7 -7 16 -10 8 -3 12 -2 9 4 -6 10 -25 14 -25 6z"/>
<path d="M128 1078 c-88 -42 -128 -66 -128 -78 0 -11 39 -35 127 -76 69 -32
130 -60 135 -62 4 -2 8 60 8 137 0 78 -3 141 -7 140 -5 0 -65 -28 -135 -61z"/>
<path d="M290 1000 c0 -78 4 -140 9 -138 39 15 290 134 291 138 0 4 -240 119
-286 137 -12 4 -14 -17 -14 -137z"/>
<path d="M803 1072 c-79 -37 -143 -69 -143 -72 1 -4 259 -127 288 -137 4 -2 7
60 7 137 0 77 -2 140 -5 140 -3 0 -69 -31 -147 -68z"/>
<path d="M980 1000 l0 -139 145 67 c79 37 144 70 145 73 0 3 -30 19 -67 36
-38 17 -103 47 -145 66 l-78 36 0 -139z"/>
<path d="M1481 1069 l-145 -68 95 -44 c52 -25 118 -56 148 -71 30 -14 56 -26
58 -26 2 0 3 63 3 140 0 77 -3 140 -7 139 -5 0 -73 -32 -152 -70z"/>
<path d="M1660 1000 c0 -110 3 -141 13 -137 72 31 286 133 286 137 0 4 -255
126 -290 138 -5 2 -9 -56 -9 -138z"/>
<path d="M2350 1001 l0 -140 73 34 c152 69 177 84 177 108 0 18 -19 31 -117
77 -64 30 -120 57 -125 58 -4 2 -8 -59 -8 -137z"/>
<path d="M1830 1095 c14 -8 30 -14 35 -14 6 0 -1 6 -15 14 -14 8 -29 14 -35
14 -5 0 1 -6 15 -14z"/>
<path d="M1965 1040 c-3 -5 -1 -10 4 -10 6 0 11 5 11 10 0 6 -2 10 -4 10 -3 0
-8 -4 -11 -10z"/>
<path d="M463 911 c-79 -36 -143 -69 -143 -72 0 -7 282 -140 287 -135 2 2 2
64 1 138 l-3 135 -142 -66z"/>
<path d="M640 840 l0 -139 133 63 c72 34 139 65 147 68 10 4 -5 15 -40 31 -30
13 -97 45 -147 70 l-93 46 0 -139z m120 57 c0 -4 -5 -5 -12 -1 -7 4 -8 3 -4
-5 6 -9 11 -9 21 -1 16 13 88 -17 78 -33 -3 -6 -1 -7 5 -3 6 4 21 2 32 -4 19
-10 12 -16 -70 -56 -56 -27 -101 -42 -115 -40 -17 3 -22 0 -19 -8 3 -8 -2 -16
-10 -19 -12 -5 -15 12 -15 113 l0 119 55 -27 c30 -14 54 -30 54 -35z"/>
<path d="M776 882 c-3 -5 1 -9 9 -9 8 0 12 4 9 9 -3 4 -7 8 -9 8 -2 0 -6 -4
-9 -8z"/>
<path d="M1245 956 c-22 -11 -87 -43 -143 -70 l-103 -49 83 -37 c46 -20 111
-51 145 -68 34 -18 64 -32 65 -32 2 0 3 63 3 140 0 77 -2 139 -5 139 -3 -1
-23 -11 -45 -23z m33 -175 l-3 -60 -117 56 c-65 31 -118 59 -118 62 0 4 53 31
118 62 l117 55 3 -58 c2 -32 2 -85 0 -117z"/>
<path d="M1320 839 c0 -77 4 -139 8 -137 45 17 282 134 282 138 0 3 -12 11
-27 17 -16 6 -81 36 -145 66 l-118 56 0 -140z"/>
<path d="M0 840 l0 -119 124 57 c68 31 121 60 118 63 -4 3 -60 31 -124 62
l-118 56 0 -119z"/>
<path d="M290 676 l0 -145 148 71 c81 38 149 72 151 74 3 3 -183 94 -266 130
l-33 14 0 -144z"/>
<path d="M980 679 c0 -77 2 -139 5 -139 16 0 173 85 169 92 -3 4 2 5 9 2 8 -3
37 6 64 20 l48 24 -35 15 c-19 8 -86 40 -147 70 l-113 55 0 -139z"/>
<path d="M1487 746 l-147 -71 146 -68 c80 -38 148 -66 150 -64 3 2 3 65 2 139
l-3 135 -148 -71z"/>
<path d="M835 761 c-55 -26 -117 -56 -139 -66 l-38 -18 123 -60 c68 -32 134
-63 147 -68 l22 -9 0 135 c0 74 -3 135 -7 135 -5 -1 -53 -22 -108 -49z"/>
<path d="M130 750 c-41 -21 -70 -39 -65 -39 6 0 44 18 85 39 41 21 71 39 65
39 -5 0 -44 -18 -85 -39z"/>
<path d="M14 694 c-18 -14 -18 -14 6 -3 31 14 36 19 24 19 -6 0 -19 -7 -30
-16z"/>
<path d="M129 604 c74 -35 136 -63 138 -61 4 5 -254 127 -265 126 -4 0 53 -29
127 -65z"/>
<path d="M1320 515 l0 -144 113 53 c61 29 129 62 150 72 l38 20 -150 71 -151
72 0 -144z"/>
<path d="M455 581 l-140 -68 45 -20 c25 -12 91 -43 148 -70 l102 -50 0 139 c0
76 -3 138 -7 138 -5 -1 -71 -32 -148 -69z"/>
<path d="M640 515 c0 -74 2 -135 5 -135 3 0 69 30 147 67 l142 68 -140 67
c-76 37 -142 67 -146 67 -5 1 -8 -60 -8 -134z"/>
<path d="M1136 582 l-139 -67 142 -68 c78 -37 146 -67 151 -67 6 0 10 56 10
135 0 102 -3 135 -12 134 -7 0 -76 -31 -152 -67z"/>
<path d="M0 516 c0 -64 2 -116 4 -116 2 0 59 26 126 58 l123 58 -118 54 c-65
30 -122 57 -126 58 -5 2 -9 -48 -9 -112z"/>
<path d="M130 430 c-69 -33 -126 -66 -128 -74 -3 -14 122 -84 231 -129 l37
-16 0 140 c0 76 -3 139 -7 139 -5 0 -64 -27 -133 -60z"/>
<path d="M290 486 c0 -5 150 -76 159 -76 7 1 -141 79 -151 80 -5 0 -8 -2 -8
-4z"/>
<path d="M980 349 c0 -133 1 -141 18 -128 27 21 28 23 10 16 -17 -6 -18 4 -18
114 0 120 0 120 23 113 26 -8 22 -2 -10 15 l-23 12 0 -142z"/>
<path d="M1485 424 c-77 -36 -142 -68 -144 -70 -2 -2 29 -19 70 -38 41 -18
107 -50 148 -70 41 -20 76 -36 78 -36 1 0 3 63 3 140 0 77 -3 140 -7 140 -5 0
-71 -30 -148 -66z"/>
<path d="M1660 351 c0 -78 2 -141 3 -141 2 0 71 32 153 71 l149 72 -133 63
c-193 92 -172 100 -172 -65z"/>
<path d="M2175 424 c-77 -37 -142 -68 -144 -70 -2 -2 20 -15 50 -28 30 -13 96
-44 147 -69 l92 -46 0 140 c0 76 -1 139 -2 139 -2 0 -66 -30 -143 -66z"/>
<path d="M2350 352 l0 -141 123 58 c103 49 122 62 125 83 3 22 -7 29 -114 79
-64 30 -121 56 -125 57 -5 2 -9 -59 -9 -136z"/>
<path d="M304 365 c0 -55 1 -76 3 -47 2 29 2 74 0 100 -2 26 -3 2 -3 -53z"/>
<path d="M1120 415 c47 -24 90 -44 95 -44 6 0 -28 20 -75 44 -47 24 -89 44
-95 44 -5 0 28 -20 75 -44z"/>
<path d="M510 381 l54 -28 -49 -26 c-66 -34 -51 -34 19 0 l54 26 -60 29 c-77
36 -89 36 -18 -1z"/>
<path d="M1238 363 c6 -2 10 -9 6 -14 -3 -5 -1 -9 5 -9 17 0 21 18 5 24 -9 3
-19 6 -22 5 -4 0 -1 -3 6 -6z"/>
<path d="M1120 290 c-41 -21 -70 -39 -65 -39 6 0 44 18 85 39 41 21 71 39 65
39 -5 0 -44 -18 -85 -39z"/>
<path d="M1143 262 c-79 -37 -143 -69 -143 -72 1 -4 256 -126 291 -138 5 -2 9
55 9 137 0 78 -3 141 -7 140 -5 0 -72 -30 -150 -67z"/>
<path d="M1320 190 c0 -82 4 -140 9 -138 35 12 290 134 290 138 0 4 -259 128
-289 138 -6 2 -10 -50 -10 -138z"/>
<path d="M1958 325 c-3 -3 -67 -34 -143 -70 l-137 -64 118 -57 c66 -31 134
-62 152 -70 l32 -14 0 140 c0 125 -4 152 -22 135z"/>
<path d="M2010 190 l0 -138 145 66 c79 37 144 69 144 72 0 3 -65 35 -144 72
l-145 67 0 -139z"/>
<path d="M2483 246 c-62 -28 -112 -53 -112 -56 0 -3 50 -28 112 -56 l112 -51
3 54 c2 29 2 77 0 107 l-3 54 -112 -52z"/>
<path d="M360 255 c-36 -19 -60 -34 -55 -34 6 0 39 15 75 34 36 19 61 34 55
34 -5 0 -39 -15 -75 -34z"/>
<path d="M290 85 l0 -85 119 0 c80 0 130 5 152 14 l34 14 -55 25 c-30 14 -99
45 -152 71 l-98 45 0 -84z"/>
<path d="M980 85 l0 -85 120 0 c107 0 170 11 170 29 0 3 -30 20 -68 37 -37 17
-102 48 -144 67 l-78 36 0 -84z"/>
<path d="M1480 98 l-145 -71 30 -13 c19 -8 74 -13 153 -14 l122 0 0 85 c0 47
-3 85 -7 84 -5 0 -73 -33 -153 -71z"/>
<path d="M1660 86 l0 -86 125 0 c111 0 176 11 175 29 -1 5 -241 119 -292 139
-4 2 -8 -35 -8 -82z"/>
<path d="M2170 97 l-145 -70 30 -13 c19 -8 74 -13 148 -14 l117 0 0 85 c0 47
-1 85 -2 84 -2 0 -68 -33 -148 -72z"/>
<path d="M2352 82 l2 -87 5 77 6 77 95 -45 c52 -25 105 -50 118 -55 36 -14 25
1 -13 16 -19 8 -75 35 -125 59 l-90 45 2 -87z"/>
</g>
</svg>
