<?xml version="1.0" standalone="no"?>
<!DOCTYPE svg PUBLIC "-//W3C//DTD SVG 20010904//EN"
 "http://www.w3.org/TR/2001/REC-SVG-20010904/DTD/svg10.dtd">
<svg version="1.0" xmlns="http://www.w3.org/2000/svg"
 width="800.000000pt" height="800.000000pt" viewBox="0 0 800.000000 800.000000"
 preserveAspectRatio="xMidYMid meet">
<metadata>
Created by potrace 1.11, written by Peter Selinger 2001-2013
</metadata>
<g transform="translate(0.000000,800.000000) scale(0.100000,-0.100000)"
fill="#000000" stroke="none">
<path d="M0 4000 l0 -4000 4000 0 4000 0 0 4000 0 4000 -4000 0 -4000 0 0
-4000z m3740 990 c0 -709 -4 -1164 -11 -1260 -6 -83 -9 -153 -7 -155 5 -6 684
755 725 812 41 58 67 134 58 173 -13 60 -112 110 -217 110 l-48 0 0 135 0 135
655 0 655 0 0 -135 0 -135 -43 0 c-98 0 -256 -62 -376 -147 -99 -71 -243 -214
-443 -442 -99 -112 -182 -209 -184 -216 -5 -13 654 -1005 752 -1131 134 -173
296 -287 427 -301 l57 -6 0 -138 0 -139 -202 0 c-339 0 -585 28 -721 81 -86
34 -168 89 -240 162 -73 74 -162 205 -448 659 -96 153 -178 277 -182 278 -4 0
-53 -34 -107 -75 l-100 -76 0 -212 c0 -311 15 -376 105 -455 60 -53 118 -72
238 -79 l97 -6 0 -138 0 -139 -830 0 -830 0 0 139 0 138 93 6 c50 3 108 11
128 17 52 15 114 59 149 106 63 87 61 15 58 1605 -3 1625 4 1480 -80 1566 -61
62 -123 85 -245 91 l-103 5 0 138 0 139 610 0 610 0 0 -1110z"/>
</g>
</svg>
